<svg version="1.2" xmlns="http://www.w3.org/2000/svg" viewBox="0 0 1546 1569" width="1546" height="1569">
	<title>PSSA3</title>
	<style>
		.s0 { fill: #00a0fc } 
	</style>
	<g id="Clip-Path: Page 1">
		<g id="Page 1">
			<path id="Path 17" fill-rule="evenodd" class="s0" d="m0.9 188.8c0-103.8 84.2-188 188-188h1169.1c103.8 0 188 84.2 188 188v1191.6c0 103.9-84.2 188-188 188h-1169.1c-103.8 0-188-84.1-188-188zm412.9 814.8q-2.7 0-2.7 5.4c-24.2 183.6-74.6 317.3-133.2 397.2-2.7 5.4 2.7 13.5 10.7 10.8 1033.5-472.4 916-240 772.6-93.4-8 8 4.9 18.7 13 10.7 719.3-581.4-13-592.1-660.4-330.7zm-55.9-586.7c0 2.6 5.4 5.3 7.6 2.6 525-106.8 751.6 16.1 834.2 90.8 7.6 2.6 15.7-2.7 10.3-8.1-277-354.8-817.7-341.4-996-344.1-8 0-8 10.8-2.7 13.4 50.5 40.3 103.7 112.2 146.6 245.4zm1025.5 421.4c-101.5-437.5-689.9-402.7-983-295.9-5.4 0-5.4 2.3-5.4 5 13.4 85.3 21.4 170.7 21.4 269.4v53.2c0 5.4 5.4 8 8.1 5.4 354.3-111.8 809.6-199.8 948.1-31.8 2.7 5.4 13.4 2.7 10.8-5.3z"/>
		</g>
	</g>
</svg>