<svg xmlns="http://www.w3.org/2000/svg" width="24" height="24" viewBox="0 0 24 24" fill="none">
  <mask id="mask0_670_188" style="mask-type:alpha" maskUnits="userSpaceOnUse" x="0" y="0" width="24" height="24">
    <rect width="24" height="24" fill="#D9D9D9"/>
  </mask>
  <g mask="url(#mask0_670_188)">
    <path d="M2 22C1.71667 22 1.47917 21.9042 1.2875 21.7125C1.09583 21.5208 1 21.2833 1 21V13L3.125 7.925C3.24167 7.64167 3.425 7.41667 3.675 7.25C3.925 7.08333 4.2 7 4.5 7H13.5C13.8 7 14.075 7.08333 14.325 7.25C14.575 7.41667 14.7583 7.64167 14.875 7.925L17 13V21C17 21.2833 16.9042 21.5208 16.7125 21.7125C16.5208 21.9042 16.2833 22 16 22H15C14.7167 22 14.4792 21.9042 14.2875 21.7125C14.0958 21.5208 14 21.2833 14 21V20H4V21C4 21.2833 3.90417 21.5208 3.7125 21.7125C3.52083 21.9042 3.28333 22 3 22H2ZM3.8 11H14.175L13.35 9H4.65L3.8 11ZM3 18H15V13H3V18ZM5.5 17C5.91667 17 6.27083 16.8542 6.5625 16.5625C6.85417 16.2708 7 15.9167 7 15.5C7 15.0833 6.85417 14.7292 6.5625 14.4375C6.27083 14.1458 5.91667 14 5.5 14C5.08333 14 4.72917 14.1458 4.4375 14.4375C4.14583 14.7292 4 15.0833 4 15.5C4 15.9167 4.14583 16.2708 4.4375 16.5625C4.72917 16.8542 5.08333 17 5.5 17ZM12.5 17C12.9167 17 13.2708 16.8542 13.5625 16.5625C13.8542 16.2708 14 15.9167 14 15.5C14 15.0833 13.8542 14.7292 13.5625 14.4375C13.2708 14.1458 12.9167 14 12.5 14C12.0833 14 11.7292 14.1458 11.4375 14.4375C11.1458 14.7292 11 15.0833 11 15.5C11 15.9167 11.1458 16.2708 11.4375 16.5625C11.7292 16.8542 12.0833 17 12.5 17ZM18 19V10.4L16.175 6H5.675L6.125 4.925C6.24167 4.64167 6.425 4.41667 6.675 4.25C6.925 4.08333 7.2 4 7.5 4H16.5C16.8 4 17.075 4.08333 17.325 4.25C17.575 4.41667 17.7583 4.64167 17.875 4.925L20 10V18C20 18.2833 19.9042 18.5208 19.7125 18.7125C19.5208 18.9042 19.2833 19 19 19H18ZM21 16V7.4L19.175 3H8.675L9.125 1.925C9.24167 1.64167 9.425 1.41667 9.675 1.25C9.925 1.08333 10.2 1 10.5 1H19.5C19.8 1 20.075 1.08333 20.325 1.25C20.575 1.41667 20.7583 1.64167 20.875 1.925L23 7V15C23 15.2833 22.9042 15.5208 22.7125 15.7125C22.5208 15.9042 22.2833 16 22 16H21Z" fill="#0077CA"/>
  </g>
</svg>