<svg xmlns="http://www.w3.org/2000/svg" width="24" height="24" viewBox="0 0 24 24" fill="none">
  <path d="M19.5731 21.1982L13.2731 14.8982C12.7731 15.2982 12.1981 15.6149 11.5481 15.8482C10.8981 16.0816 10.2064 16.1982 9.47308 16.1982C7.65642 16.1982 6.11892 15.5691 4.86058 14.3107C3.60225 13.0524 2.97308 11.5149 2.97308 9.69824C2.97308 7.88158 3.60225 6.34408 4.86058 5.08574C6.11892 3.82741 7.65642 3.19824 9.47308 3.19824C11.2898 3.19824 12.8273 3.82741 14.0856 5.08574C15.3439 6.34408 15.9731 7.88158 15.9731 9.69824C15.9731 10.4316 15.8564 11.1232 15.6231 11.7732C15.3898 12.4232 15.0731 12.9982 14.6731 13.4982L20.9731 19.7982L19.5731 21.1982ZM9.47308 14.1982C10.7231 14.1982 11.7856 13.7607 12.6606 12.8857C13.5356 12.0107 13.9731 10.9482 13.9731 9.69824C13.9731 8.44824 13.5356 7.38574 12.6606 6.51074C11.7856 5.63574 10.7231 5.19824 9.47308 5.19824C8.22308 5.19824 7.16058 5.63574 6.28558 6.51074C5.41058 7.38574 4.97308 8.44824 4.97308 9.69824C4.97308 10.9482 5.41058 12.0107 6.28558 12.8857C7.16058 13.7607 8.22308 14.1982 9.47308 14.1982Z" fill="#0077CA"/>
</svg>