<svg width="43" height="42" viewBox="0 0 43 42" fill="none" xmlns="http://www.w3.org/2000/svg">
<g id="Icon-Plus">
<path id="add_circle" d="M20.0937 31.25H23.2187V22.6042H31.9167V19.4792H23.2187V10.4167H20.0937V19.4792H11.0833V22.6042H20.0937V31.25ZM21.5141 41.6667C18.6411 41.6667 15.9415 41.1198 13.4151 40.026C10.8884 38.9323 8.67881 37.4392 6.78645 35.5469C4.89409 33.6545 3.40103 31.4438 2.30728 28.9146C1.21353 26.3854 0.666656 23.683 0.666656 20.8073C0.666656 17.9316 1.21353 15.2292 2.30728 12.7C3.40103 10.1708 4.89409 7.96875 6.78645 6.09375C8.67881 4.21875 10.8896 2.73438 13.4187 1.64063C15.9479 0.546875 18.6503 0 21.526 0C24.4017 0 27.1042 0.546875 29.6333 1.64063C32.1625 2.73438 34.3646 4.21875 36.2396 6.09375C38.1146 7.96875 39.5989 10.1736 40.6927 12.7083C41.7864 15.2431 42.3333 17.9467 42.3333 20.8193C42.3333 23.6922 41.7864 26.3918 40.6927 28.9182C39.5989 31.445 38.1146 33.6514 36.2396 35.5375C34.3646 37.4233 32.1597 38.9163 29.625 40.0167C27.0903 41.1167 24.3866 41.6667 21.5141 41.6667ZM21.526 38.5417C26.4392 38.5417 30.6146 36.8142 34.0521 33.3594C37.4896 29.9045 39.2083 25.7205 39.2083 20.8073C39.2083 15.8941 37.4929 11.7188 34.062 8.28125C30.6311 4.84375 26.4437 3.125 21.5 3.125C16.6042 3.125 12.4288 4.84045 8.97395 8.27135C5.51909 11.7023 3.79166 15.8896 3.79166 20.8333C3.79166 25.7292 5.51909 29.9045 8.97395 33.3594C12.4288 36.8142 16.6128 38.5417 21.526 38.5417Z" fill="#0077CA"/>
</g>
</svg>
