<svg width="30" height="30" viewBox="0 0 30 30" fill="none" xmlns="http://www.w3.org/2000/svg">
<g id="Icon-Facebook">
<path id="Vector" d="M26.25 25C26.25 25.6906 25.6906 26.25 25 26.25H5C4.30937 26.25 3.75 25.6906 3.75 25V5C3.75 4.30937 4.30937 3.75 5 3.75H25C25.6906 3.75 26.25 4.30937 26.25 5V25Z" fill="url(#paint0_linear_672_141)"/>
<path id="Vector_2" opacity="0.05" d="M15.625 23.75V16.875H13.125V13.125H15.625V11.7887C15.625 8.6375 17.2913 6.9025 20.3156 6.9025C21.5625 6.9025 22.2388 6.99 22.5644 7.0325L23.1006 7.10187L23.125 7.64V10.625H20.8531C20.1481 10.625 20 11.4862 20 12.2094V13.125H22.9519L22.3719 16.875H20V23.75H15.625Z" fill="black"/>
<path id="Vector_3" opacity="0.07" d="M15.9375 23.4375V16.5625H13.4375V13.4375H15.9375V11.7887C15.9375 8.79625 17.4513 7.215 20.3156 7.215C21.5475 7.215 22.2094 7.30125 22.5281 7.3425L22.8006 7.37812L22.8131 7.65437V10.3125H20.8538C19.8394 10.3125 19.6881 11.5006 19.6881 12.2094V13.4375H22.5881L22.105 16.5625H19.6875V23.4375H15.9375Z" fill="black"/>
<path id="Vector_4" d="M20.8531 10H22.5V7.65375C22.1925 7.61375 21.5431 7.52687 20.3156 7.52687C17.7525 7.52687 16.25 8.82687 16.25 11.7887V13.75H13.75V16.25H16.25V23.125H19.375V16.25H21.8363L22.2225 13.75H19.375V12.2094C19.375 11.0381 19.7575 10 20.8531 10Z" fill="white"/>
</g>
<defs>
<linearGradient id="paint0_linear_672_141" x1="3.8925" y1="3.06" x2="26.2981" y2="27.145" gradientUnits="userSpaceOnUse">
<stop stop-color="#0D61A9"/>
<stop offset="1" stop-color="#16528C"/>
</linearGradient>
</defs>
</svg>
